<svg width="25" height="26" viewBox="0 0 25 26" fill="none" xmlns="http://www.w3.org/2000/svg">
<path d="M12.1022 0.5C8.90978 0.5 5.84812 1.55357 3.59074 3.42893C1.33337 5.3043 0.0651855 7.84784 0.0651855 10.5C0.0651855 17.25 10.6728 24.875 11.1242 25.2C11.3967 25.3937 11.7436 25.5001 12.1022 25.5001C12.4608 25.5001 12.8077 25.3937 13.0802 25.2C13.6068 24.875 24.1392 17.25 24.1392 10.5C24.1392 7.84784 22.871 5.3043 20.6136 3.42893C18.3563 1.55357 15.2946 0.5 12.1022 0.5ZM12.1022 22.5625C8.89734 20.0625 3.07444 14.675 3.07444 10.5C3.07444 8.51088 4.02557 6.60322 5.71861 5.1967C7.41164 3.79018 9.70788 3 12.1022 3C14.4965 3 16.7927 3.79018 18.4858 5.1967C20.1788 6.60322 21.1299 8.51088 21.1299 10.5C21.1299 14.675 15.307 20.075 12.1022 22.5625ZM12.1022 5.5C10.9118 5.5 9.74823 5.79324 8.75849 6.34265C7.76875 6.89206 6.99734 7.67295 6.54182 8.58658C6.08629 9.50021 5.96711 10.5055 6.19933 11.4755C6.43156 12.4454 7.00476 13.3363 7.84647 14.0355C8.68817 14.7348 9.76056 15.211 10.928 15.4039C12.0955 15.5969 13.3056 15.4978 14.4054 15.1194C15.5051 14.741 16.4451 14.1001 17.1064 13.2779C17.7677 12.4556 18.1207 11.4889 18.1207 10.5C18.1207 9.17392 17.4866 7.90215 16.3579 6.96447C15.2292 6.02678 13.6984 5.5 12.1022 5.5ZM12.1022 13C11.507 13 10.9252 12.8534 10.4303 12.5787C9.93547 12.304 9.54977 11.9135 9.32201 11.4567C9.09424 10.9999 9.03465 10.4972 9.15076 10.0123C9.26687 9.52732 9.55348 9.08186 9.97433 8.73223C10.3952 8.3826 10.9314 8.1445 11.5151 8.04804C12.0989 7.95157 12.7039 8.00108 13.2538 8.1903C13.8036 8.37952 14.2736 8.69995 14.6043 9.11107C14.935 9.5222 15.1114 10.0055 15.1114 10.5C15.1114 11.163 14.7944 11.7989 14.2301 12.2678C13.6657 12.7366 12.9003 13 12.1022 13Z" fill="#CCF381"/>
</svg>
